<svg xmlns="http://www.w3.org/2000/svg" style="display: none">
  
  <!-- Search icon -->
  <symbol id="i-search" widthviewBox="0 0 15 15" fill="none">
    <path d="M10 6.5C10 8.433 8.433 10 6.5 10C4.567 10 3 8.433 3 6.5C3 4.567 4.567 3 6.5 3C8.433 3 10 4.567 10 6.5ZM9.30884 10.0159C8.53901 10.6318 7.56251 11 6.5 11C4.01472 11 2 8.98528 2 6.5C2 4.01472 4.01472 2 6.5 2C8.98528 2 11 4.01472 11 6.5C11 7.56251 10.6318 8.53901 10.0159 9.30884L12.8536 12.1464C13.0488 12.3417 13.0488 12.6583 12.8536 12.8536C12.6583 13.0488 12.3417 13.0488 12.1464 12.8536L9.30884 10.0159Z" fill="currentColor" fill-rule="evenodd" clip-rule="evenodd"></path>
  </symbol>

  <!-- Colors icon -->
  <symbol id="i-colors" viewBox="0 0 15 15" fill="none">
    <path d="M7.49991 0.876892C3.84222 0.876892 0.877075 3.84204 0.877075 7.49972C0.877075 11.1574 3.84222 14.1226 7.49991 14.1226C11.1576 14.1226 14.1227 11.1574 14.1227 7.49972C14.1227 3.84204 11.1576 0.876892 7.49991 0.876892ZM7.49988 1.82689C4.36688 1.8269 1.82707 4.36672 1.82707 7.49972C1.82707 10.6327 4.36688 13.1725 7.49988 13.1726V1.82689Z" fill="currentColor" fill-rule="evenodd" clip-rule="evenodd"></path>
  </symbol>
  
  <!-- Plus icon -->
  <symbol id="i-add" viewBox="0 0 15 15" fill="none">
    <path d="M8 2.75C8 2.47386 7.77614 2.25 7.5 2.25C7.22386 2.25 7 2.47386 7 2.75V7H2.75C2.47386 7 2.25 7.22386 2.25 7.5C2.25 7.77614 2.47386 8 2.75 8H7V12.25C7 12.5261 7.22386 12.75 7.5 12.75C7.77614 12.75 8 12.5261 8 12.25V8H12.25C12.5261 8 12.75 7.77614 12.75 7.5C12.75 7.22386 12.5261 7 12.25 7H8V2.75Z" fill="currentColor" fill-rule="evenodd" clip-rule="evenodd"></path>
  </symbol>

</svg>